<mxfile host="app.diagrams.net" modified="2023-08-23T03:53:09.102Z" agent="Mozilla/5.0 (Windows NT 10.0; Win64; x64) AppleWebKit/537.36 (KHTML, like Gecko) Chrome/116.0.0.0 Safari/537.36" version="21.6.2" etag="o4GCUFQ81i7rqOQoVIfo" type="github">
  <diagram name="第 1 页" id="lY8wpgqnboHLVe7F2saa">
    <mxGraphModel>
      <root>
        <mxCell id="0" />
        <mxCell id="1" parent="0" />
      </root>
    </mxGraphModel>
  </diagram>
</mxfile>
